# xmcd CD database file
#
# Track frame offsets:
#	150
#	12429
#	30068
#	38839
#	52588
#	68657
#	79991
#	101245
#	119620
#	138857
#	156576
#	170415
#	188470
#	202637
#
# Disc length: 2896 seconds
#
# Revision: 1
# Processed by: cddbd v1.5.2PL0 Copyright (c) Steve Scherf et al.
# Submitted via: CDex 1.50
#
DISCID=a80b4e0e
DTITLE=Serena Fisseau and Vincent Peirani - So Quiet
DYEAR=2019
DGENRE=Jazz
TTITLE0=Bengawan Solo
TTITLE1=La Javanaise
TTITLE2=What A Wonderful World
TTITLE3=Close To You
TTITLE4=La Tendresse
TTITLE5=La Bourdique
TTITLE6=Bintang Kecil
TTITLE7=Malandrinha
TTITLE8=Luiza
TTITLE9=Alguem Cantando
TTITLE10=Small Song
TTITLE11=And I Love Her
TTITLE12=3 Petites Notes de Musique
TTITLE13=Over The Rainbow
EXTD=YEAR: 2019
EXTT0=
EXTT1=
EXTT2=
EXTT3=
EXTT4=
EXTT5=
EXTT6=
EXTT7=
EXTT8=
EXTT9=
EXTT10=
EXTT11=
EXTT12=
EXTT13=
PLAYORDER=
